<?xml version="1.0" encoding="UTF-8"?>
<svg width="2000px" height="600px" viewBox="0 0 2000 600" version="1.1" xmlns="http://www.w3.org/2000/svg" xmlns:xlink="http://www.w3.org/1999/xlink">
    <title>Artboard</title>
    <defs>
        <path d="M197.5,145 C194.166667,155 188.333333,160 176.666667,160 C173.333333,170 168.333333,175 155,175 C158.333333,175 161.666667,170.833333 161.666667,167.5 C161.666667,164.166667 158.333333,160 155,160 L155,160 L138.333333,160 C130,160 121.666667,169.166667 121.666667,177.5 C121.666667,185.833333 129.166667,195 138.333333,195 L138.333333,195 L151.666667,195 L111.666667,235 L71.6666667,195 L71.6666667,195 L85,195 C94.1666667,195 101.666667,185.833333 101.666667,177.5 C101.666667,169.166667 93.3333333,160 85,160 L85,160 L68.3333333,160 C65,160 61.6666667,164.166667 61.6666667,167.5 C61.6666667,170.833333 65,175 68.3333333,175 C55,175 50,170 46.6666667,160 C33.3333333,160 29.1666667,155 25.8333333,145 L25.8333333,145 Z M106.666667,60 L106.666667,90 L106.666667,90 C106.666667,100 96.6666667,110 86.6666667,110 C81.6666667,110 77.5,108.611111 74.1666667,105.833333 C70.8333333,108.611111 66.6666667,110 61.6666667,110 C56.6666667,110 52.5,108.611111 49.1666667,105.833333 C46.3888889,108.611111 42.5,110 37.5,110 L20.0205059,110 L20.0205059,110 C17.5,110 15.8333333,112.5 15.8333333,115 C15.8333333,117.5 17.5410117,120 20.0205059,120 L226.666667,120 L226.666667,120 L211.666667,135 L20.0205059,135 L20.0205059,135 C10,135 -1.27897692e-13,125 -1.27897692e-13,115 C-1.27897692e-13,105 10,95 20.0205059,95 L36.6666667,95 L36.6666667,95 C39.1666667,95 41.6666667,92.5 41.6666667,90 L41.6666667,85 L41.6666667,85 L56.6666667,70 L56.6666667,90 L56.6666667,90 C56.6666667,92.5 59.1666667,95 61.6666667,95 C64.1666667,95 66.6666667,92.5 66.6666667,90 L66.6666667,85 L66.6666667,85 L81.6666667,70 L81.6666667,90 L81.6666667,90 C81.6666667,92.5 84.1666667,95 86.6666667,95 C89.1666667,95 91.6666667,92.5 91.6666667,90 L91.6666667,75 L91.6666667,75 L106.666667,60 Z M116.666667,0 L131.666667,15 L131.666667,15 L131.666667,90 C131.666667,92.5 132.5,95 135.833333,95 L135.833333,95 L190.833333,95 C188.055556,92.2222222 185.927362,90.0940289 184.448753,88.61542 L184.236573,88.4033637 C182.138276,86.3087991 180.713781,85 177.127219,85 L177.127219,85 L161.666667,85 C151.666667,85 142.5,75.8333333 142.5,65.8333333 L142.5,65.8333333 L142.5,25 L157.5,40 L157.5,40 L157.5,65.8333333 C157.5,68.3333333 159.166667,70 161.666667,70 L161.666667,70 L179.420203,70.000744 C184.308715,70.0300111 188.451446,70.9514461 195.301989,77.8019892 L195.301989,77.8019892 L227.5,110 L227.5,110 L135.833333,110 C125.833333,110 116.666667,100 116.666667,90 L116.666667,90 L116.666667,0 Z" id="path-1"></path>
        <linearGradient x1="50%" y1="9.02229291%" x2="50%" y2="39.1992432%" id="linearGradient-3">
            <stop stop-color="#632F88" offset="0%"></stop>
            <stop stop-color="#E01D85" offset="100%"></stop>
        </linearGradient>
        <linearGradient x1="50%" y1="14.9048624%" x2="46.5920968%" y2="67.0321953%" id="linearGradient-4">
            <stop stop-color="#DA1F85" offset="0%"></stop>
            <stop stop-color="#B52486" offset="43.8126605%"></stop>
            <stop stop-color="#5D2F88" offset="100%"></stop>
        </linearGradient>
    </defs>
    <g id="Artboard" stroke="none" stroke-width="1" fill="none" fill-rule="evenodd">
        <g id="Group" opacity="0.5" transform="translate(-400.000000, -280.000000)" stroke="#979797" stroke-linecap="round" stroke-linejoin="round">
            <g id="lines-bounded" transform="translate(1400.000000, 280.000000)">
                <path d="M1400,538.5 L1310.96589,473.702255 C1143.10196,351.533305 928.950855,311.935179 728.5,366 L688.034613,376.914166 C508.123581,425.439066 317.586195,416.924201 142.720707,352.544805 L0,300 L0,300" id="Path-10"></path>
                <path d="M1400,528.5 L1306.39664,457.736388 C1141.49344,333.070496 928.864082,290.1189 728.5,341 L692.216029,350.214068 C509.681409,396.567497 317.20451,384.492171 141.894423,315.68882 L0,260 L0,260" id="Path-10-Copy-36"></path>
                <path d="M1400,518.5 L1301.92327,441.587927 C1139.90571,314.533249 928.792149,268.296349 728.5,316 L696.151286,323.704505 C511.14995,367.766337 316.945897,352.092883 141.405062,278.933094 L0,220 L0,220" id="Path-10-Copy-37"></path>
                <path d="M1400,508.5 L1297.54994,425.268355 C1138.34115,295.925254 928.734861,246.468272 728.5,291 L699.83123,297.375862 C512.525229,339.032244 316.80824,319.734375 141.244816,242.298746 L0,180 L0,180" id="Path-10-Copy-38"></path>
                <path d="M1400,498.5 L1293.28003,408.788997 C1136.80189,277.250248 928.691963,224.635415 728.5,266 L703.247849,271.217716 C513.803722,310.361534 316.788808,287.424196 141.404388,205.805444 L0,140 L0,140" id="Path-10-Copy-39"></path>
                <path d="M1400,488.5 L1289.11627,392.160962 C1135.28978,258.511991 928.663145,202.798517 728.5,241 L706.394298,245.218912 C514.982376,281.750209 316.884315,255.169355 141.873163,169.471306 L0,100 L0,100" id="Path-10-Copy-40"></path>
                <path d="M1400,478.5 L1285.06073,375.395101 C1133.80644,239.714236 928.648044,180.958308 728.5,216 L709.264922,219.367656 C516.058622,253.193995 317.090974,222.976284 142.639376,133.312826 L0,60 L0,60" id="Path-10-Copy-41"></path>
                <path d="M1400,468.5 L1281.11493,358.501964 C1132.35327,220.860712 928.646256,159.115502 728.5,191 L711.855266,193.651606 C517.030381,224.688378 317.404559,190.850814 143.690287,97.3448324 L0,20 L0,20" id="Path-10-Copy-42"></path>
                <path d="M1400,458.5 L1277.27983,341.491768 C1130.93146,201.955102 928.657335,137.270793 728.5,166 L714.16207,168.057968 C517.896077,196.228639 317.820469,158.79815 145.012346,61.5804571 L38.5637097,1.69501532 L38.5637097,1.69501532" id="Path-10-Copy-43"></path>
                <path d="M1400,448.5 L1273.55594,324.374379 C1129.54199,183.001026 928.680803,115.42485 728.5,141 L716.18326,142.57359 C518.654624,167.809898 318.333786,126.822866 146.591361,26.0311387 L104.823615,1.51859758 L104.823615,1.51859758" id="Path-10-Copy-44"></path>
                <path d="M1400,438.5 L1269.94335,307.15929 C1128.18567,164.002032 928.716152,93.5783174 728.5,116 L717.917924,117.185059 C526.196532,138.655436 332.84111,97.9363991 166.268978,1.33900168" id="Path-10-Copy-45"></path>
                <path d="M1400,428.5 L1266.44175,289.855607 C1126.86312,144.961575 928.762852,71.7318076 728.5,91 L719.366288,91.8787956 C551.106025,108.067875 382.348806,76.4974248 232.134854,1.72794625" id="Path-10-Copy-46"></path>
                <path d="M1400,418.5 L1263.0505,272.472044 C1125.57481,125.883016 928.820354,49.8859022 728.5,66 L720.529678,66.6411458 C577.766841,78.1252225 435.190789,55.3208109 304.334782,1.19097534" id="Path-10-Copy-47"></path>
                <path d="M1400,408.5 L1259.76868,255.016916 C1124.32107,106.769607 928.888091,28.0411487 728.5,41 L721.410473,41.458471 C609.791748,48.6767166 498.618055,34.9868502 393.358621,1.88894467" id="Path-10-Copy-48"></path>
                <path d="M1400,398.5 L1256.59508,237.49814 C1123.10209,87.6244863 928.96549,6.19805964 728.5,16 L722.012061,16.3172336 C650.248995,19.8261532 578.805933,14.7118644 509.125852,1.39514626" id="Path-10-Copy-49"></path>
                <path d="M1400,388.5 L1253.52828,219.923236 C1153.15761,104.404955 1017.15994,28.0751186 869.296471,1.29411231" id="Path-10-Copy-50"></path>
                <path d="M1400,378.5 L1250.56666,202.29933 C1171.64503,109.240827 1069.86694,40.6996531 957.101054,2.04784186" id="Path-10-Copy-51"></path>
                <path d="M1400,548.5 L1315.62607,489.473952 C1144.72864,369.918064 929.052595,333.744449 728.5,391 L683.617292,403.813518 C506.480864,454.384012 318.092404,449.380499 143.890074,389.478604 L0,340 L0,340" id="Path-10-Copy"></path>
                <path d="M1400,558.5 L1320.37139,505.039888 C1146.37055,388.221275 929.169356,355.545983 728.5,416 L678.975365,430.919882 C504.758053,483.404908 318.723882,481.852225 145.406884,426.466598 L0,380 L0,380" id="Path-10-Copy-2"></path>
                <path d="M1400,568.5 L1325.19512,520.388542 C1148.02448,406.439583 929.301116,377.339078 728.5,441 L674.121114,458.239994 C502.960307,512.503909 319.480625,514.330245 147.273564,463.484175 L0,420 L0,420" id="Path-10-Copy-3"></path>
                <path d="M1400,578.5 L1330.08962,535.508567 C1149.68694,424.569824 929.447772,399.12306 728.5,466 L669.067734,485.779508 C501.093105,541.682736 320.361855,546.805217 149.490492,500.505929 L0,460 L0,460" id="Path-10-Copy-4"></path>
                <path d="M1400,588.5 L1335.04622,550.388896 C1151.35414,442.609059 929.609132,420.89729 728.5,491 L663.829243,513.542961 C499.162211,570.942668 321.366001,579.267677 152.055899,537.50589 L0,500 L0,500" id="Path-10-Copy-5"></path>
                <path d="M1400,598.5 L1340.05524,565.018867 C1153.02203,460.55462 929.784916,442.661174 728.5,516 L658.420397,541.533736 C497.173625,600.284531 322.490688,611.708136 154.965802,574.457766 L0,540 L0,540" id="Path-10-Copy-6"></path>
                <path d="M1400,608.5 L1345.10597,579.388358 C1154.68629,478.404155 929.974752,464.414172 728.5,541 L652.856581,569.754044 C495.133533,629.708704 323.732741,644.117177 158.213969,611.335209 L0,580 L0,580" id="Path-10-Copy-7"></path>
                <path d="M1400,618.5 L1350.18663,593.487928 C1156.34233,496.15567 930.178173,486.155802 728.5,566 L647.153708,598.20492 C493.048264,659.21512 325.088199,676.485556 161.791909,648.112081 L0,620 L0,620" id="Path-10-Copy-8"></path>
                <path d="M1400,628.5 L1355.2844,607.30897 C1157.98534,513.80758 930.394617,507.885655 728.5,591 L641.328102,626.886223 C490.924234,688.803273 326.552344,708.804299 165.688899,684.76274 L0,660 L0,660" id="Path-10-Copy-9"></path>
                <path d="M1400,638.5 L1360.38545,620.843869 C1159.61029,531.358747 930.623426,529.603394 728.5,616 L635.396381,655.796657 C488.767899,718.472239 328.119739,741.064803 169.892051,721.26231 L0,700 L0,700" id="Path-10-Copy-10"></path>
                <path d="M1400,648.5 L1365.47498,634.086168 C1161.21198,548.808529 930.863851,551.308766 728.5,641 L629.375333,684.933803 C486.585701,748.220691 329.784276,773.258925 174.386403,757.586964 L0,740 L0,740" id="Path-10-Copy-11"></path>
                <path d="M1400,658.5 L1370.53727,647.030727 C1162.78508,566.156816 931.115052,573.001609 728.5,666 L623.281802,714.294157 C484.384022,778.046924 331.53924,805.379067 179.155058,793.714178 L0,780 L0,780" id="Path-10-Copy-12"></path>
                <path d="M1400,668.5 L1375.55581,659.673887 C1164.32415,583.404064 931.376104,594.68185 728.5,691 L617.132559,743.873186 C482.169134,807.948881 333.377381,837.418259 184.179344,829.622979 L0,820 L0,820" id="Path-10-Copy-13"></path>
                <path d="M1400,678.5 L1380.51338,672.01362 C1165.8237,600.55133 931.646002,616.349517 728.5,716 L610.944189,773.66539 C479.94716,837.924185 335.29099,869.370222 189.43901,865.294164 L0,860 L0,860" id="Path-10-Copy-14"></path>
                <path d="M1400,688.5 L1385.39221,684.049672 C1167.27827,617.60029 931.92367,638.004735 728.5,741 L604.732974,803.664377 C477.724027,867.970169 337.271985,901.229424 194.912447,900.710495 L0,900 L0,900" id="Path-10-Copy-15"></path>
            </g>
            <g id="lines-bounded-copy" transform="translate(700.000000, 451.500000) scale(-1, 1) translate(-700.000000, -451.500000) ">
                <path d="M1400,538.5 L1310.96589,473.702255 C1143.10196,351.533305 928.950855,311.935179 728.5,366 L688.034613,376.914166 C508.123581,425.439066 317.586195,416.924201 142.720707,352.544805 L0,300 L0,300" id="Path-10"></path>
                <path d="M1400,528.5 L1306.39664,457.736388 C1141.49344,333.070496 928.864082,290.1189 728.5,341 L692.216029,350.214068 C509.681409,396.567497 317.20451,384.492171 141.894423,315.68882 L0,260 L0,260" id="Path-10-Copy-36"></path>
                <path d="M1400,518.5 L1301.92327,441.587927 C1139.90571,314.533249 928.792149,268.296349 728.5,316 L696.151286,323.704505 C511.14995,367.766337 316.945897,352.092883 141.405062,278.933094 L0,220 L0,220" id="Path-10-Copy-37"></path>
                <path d="M1400,508.5 L1297.54994,425.268355 C1138.34115,295.925254 928.734861,246.468272 728.5,291 L699.83123,297.375862 C512.525229,339.032244 316.80824,319.734375 141.244816,242.298746 L0,180 L0,180" id="Path-10-Copy-38"></path>
                <path d="M1400,498.5 L1293.28003,408.788997 C1136.80189,277.250248 928.691963,224.635415 728.5,266 L703.247849,271.217716 C513.803722,310.361534 316.788808,287.424196 141.404388,205.805444 L0,140 L0,140" id="Path-10-Copy-39"></path>
                <path d="M1400,488.5 L1289.11627,392.160962 C1135.28978,258.511991 928.663145,202.798517 728.5,241 L706.394298,245.218912 C514.982376,281.750209 316.884315,255.169355 141.873163,169.471306 L0,100 L0,100" id="Path-10-Copy-40"></path>
                <path d="M1400,478.5 L1285.06073,375.395101 C1133.80644,239.714236 928.648044,180.958308 728.5,216 L709.264922,219.367656 C516.058622,253.193995 317.090974,222.976284 142.639376,133.312826 L0,60 L0,60" id="Path-10-Copy-41"></path>
                <path d="M1400,468.5 L1281.11493,358.501964 C1132.35327,220.860712 928.646256,159.115502 728.5,191 L711.855266,193.651606 C517.030381,224.688378 317.404559,190.850814 143.690287,97.3448324 L0,20 L0,20" id="Path-10-Copy-42"></path>
                <path d="M1400,458.5 L1277.27983,341.491768 C1130.93146,201.955102 928.657335,137.270793 728.5,166 L714.16207,168.057968 C517.896077,196.228639 317.820469,158.79815 145.012346,61.5804571 L38.5637097,1.69501532 L38.5637097,1.69501532" id="Path-10-Copy-43"></path>
                <path d="M1400,448.5 L1273.55594,324.374379 C1129.54199,183.001026 928.680803,115.42485 728.5,141 L716.18326,142.57359 C518.654624,167.809898 318.333786,126.822866 146.591361,26.0311387 L104.823615,1.51859758 L104.823615,1.51859758" id="Path-10-Copy-44"></path>
                <path d="M1400,438.5 L1269.94335,307.15929 C1128.18567,164.002032 928.716152,93.5783174 728.5,116 L717.917924,117.185059 C526.196532,138.655436 332.84111,97.9363991 166.268978,1.33900168" id="Path-10-Copy-45"></path>
                <path d="M1400,428.5 L1266.44175,289.855607 C1126.86312,144.961575 928.762852,71.7318076 728.5,91 L719.366288,91.8787956 C551.106025,108.067875 382.348806,76.4974248 232.134854,1.72794625" id="Path-10-Copy-46"></path>
                <path d="M1400,418.5 L1263.0505,272.472044 C1125.57481,125.883016 928.820354,49.8859022 728.5,66 L720.529678,66.6411458 C577.766841,78.1252225 435.190789,55.3208109 304.334782,1.19097534" id="Path-10-Copy-47"></path>
                <path d="M1400,408.5 L1259.76868,255.016916 C1124.32107,106.769607 928.888091,28.0411487 728.5,41 L721.410473,41.458471 C609.791748,48.6767166 498.618055,34.9868502 393.358621,1.88894467" id="Path-10-Copy-48"></path>
                <path d="M1400,398.5 L1256.59508,237.49814 C1123.10209,87.6244863 928.96549,6.19805964 728.5,16 L722.012061,16.3172336 C650.248995,19.8261532 578.805933,14.7118644 509.125852,1.39514626" id="Path-10-Copy-49"></path>
                <path d="M1400,388.5 L1253.52828,219.923236 C1153.15761,104.404955 1017.15994,28.0751186 869.296471,1.29411231" id="Path-10-Copy-50"></path>
                <path d="M1400,378.5 L1250.56666,202.29933 C1171.64503,109.240827 1069.86694,40.6996531 957.101054,2.04784186" id="Path-10-Copy-51"></path>
                <path d="M1400,548.5 L1315.62607,489.473952 C1144.72864,369.918064 929.052595,333.744449 728.5,391 L683.617292,403.813518 C506.480864,454.384012 318.092404,449.380499 143.890074,389.478604 L0,340 L0,340" id="Path-10-Copy"></path>
                <path d="M1400,558.5 L1320.37139,505.039888 C1146.37055,388.221275 929.169356,355.545983 728.5,416 L678.975365,430.919882 C504.758053,483.404908 318.723882,481.852225 145.406884,426.466598 L0,380 L0,380" id="Path-10-Copy-2"></path>
                <path d="M1400,568.5 L1325.19512,520.388542 C1148.02448,406.439583 929.301116,377.339078 728.5,441 L674.121114,458.239994 C502.960307,512.503909 319.480625,514.330245 147.273564,463.484175 L0,420 L0,420" id="Path-10-Copy-3"></path>
                <path d="M1400,578.5 L1330.08962,535.508567 C1149.68694,424.569824 929.447772,399.12306 728.5,466 L669.067734,485.779508 C501.093105,541.682736 320.361855,546.805217 149.490492,500.505929 L0,460 L0,460" id="Path-10-Copy-4"></path>
                <path d="M1400,588.5 L1335.04622,550.388896 C1151.35414,442.609059 929.609132,420.89729 728.5,491 L663.829243,513.542961 C499.162211,570.942668 321.366001,579.267677 152.055899,537.50589 L0,500 L0,500" id="Path-10-Copy-5"></path>
                <path d="M1400,598.5 L1340.05524,565.018867 C1153.02203,460.55462 929.784916,442.661174 728.5,516 L658.420397,541.533736 C497.173625,600.284531 322.490688,611.708136 154.965802,574.457766 L0,540 L0,540" id="Path-10-Copy-6"></path>
                <path d="M1400,608.5 L1345.10597,579.388358 C1154.68629,478.404155 929.974752,464.414172 728.5,541 L652.856581,569.754044 C495.133533,629.708704 323.732741,644.117177 158.213969,611.335209 L0,580 L0,580" id="Path-10-Copy-7"></path>
                <path d="M1400,618.5 L1350.18663,593.487928 C1156.34233,496.15567 930.178173,486.155802 728.5,566 L647.153708,598.20492 C493.048264,659.21512 325.088199,676.485556 161.791909,648.112081 L0,620 L0,620" id="Path-10-Copy-8"></path>
                <path d="M1400,628.5 L1355.2844,607.30897 C1157.98534,513.80758 930.394617,507.885655 728.5,591 L641.328102,626.886223 C490.924234,688.803273 326.552344,708.804299 165.688899,684.76274 L0,660 L0,660" id="Path-10-Copy-9"></path>
                <path d="M1400,638.5 L1360.38545,620.843869 C1159.61029,531.358747 930.623426,529.603394 728.5,616 L635.396381,655.796657 C488.767899,718.472239 328.119739,741.064803 169.892051,721.26231 L0,700 L0,700" id="Path-10-Copy-10"></path>
                <path d="M1400,648.5 L1365.47498,634.086168 C1161.21198,548.808529 930.863851,551.308766 728.5,641 L629.375333,684.933803 C486.585701,748.220691 329.784276,773.258925 174.386403,757.586964 L0,740 L0,740" id="Path-10-Copy-11"></path>
                <path d="M1400,658.5 L1370.53727,647.030727 C1162.78508,566.156816 931.115052,573.001609 728.5,666 L623.281802,714.294157 C484.384022,778.046924 331.53924,805.379067 179.155058,793.714178 L0,780 L0,780" id="Path-10-Copy-12"></path>
                <path d="M1400,668.5 L1375.55581,659.673887 C1164.32415,583.404064 931.376104,594.68185 728.5,691 L617.132559,743.873186 C482.169134,807.948881 333.377381,837.418259 184.179344,829.622979 L0,820 L0,820" id="Path-10-Copy-13"></path>
                <path d="M1400,678.5 L1380.51338,672.01362 C1165.8237,600.55133 931.646002,616.349517 728.5,716 L610.944189,773.66539 C479.94716,837.924185 335.29099,869.370222 189.43901,865.294164 L0,860 L0,860" id="Path-10-Copy-14"></path>
                <path d="M1400,688.5 L1385.39221,684.049672 C1167.27827,617.60029 931.92367,638.004735 728.5,741 L604.732974,803.664377 C477.724027,867.970169 337.271985,901.229424 194.912447,900.710495 L0,900 L0,900" id="Path-10-Copy-15"></path>
                <path d="M1400,698.5 L1390.17415,695.783686 C1168.68244,634.553256 932.20797,659.647732 728.5,766 L598.514787,833.862942 C543.899073,862.376825 486.684345,885.112002 427.802095,901.829728" id="Path-10-Copy-16"></path>
                <path d="M1400,708.5 L1394.84083,707.219302 C1170.03095,651.413185 932.497713,681.278833 728.5,791 L592.304987,864.253153 C566.446005,878.161534 539.978618,890.765868 513.00323,902.038454" id="Path-10-Copy-17"></path>
                <path d="M1400,718.5 L1399.37388,718.362236 C1171.31872,668.183668 932.791669,702.898461 728.5,816 L586.118333,894.826443 C581.561589,897.349183 576.985141,899.831159 572.389546,902.272206" id="Path-10-Copy-18"></path>
                <path d="M1400,728.5 C1171.2093,684.61349 934.266862,723.836219 731.822742,839.108029 C682.937186,866.943495 646.273018,887.820095 621.83024,901.737829" id="Path-10-Copy-19"></path>
                <path d="M1400,738.5 L1397.50445,738.091701 C1169.99277,700.868352 936.623315,744.211751 737.650176,860.645559 C706.058427,879.132214 682.364615,892.997205 666.568741,902.240532" id="Path-10-Copy-20"></path>
                <path d="M1400,748.5 L1390.16058,747.167724 C1167.07036,716.960866 940.346943,763.691348 747.383626,879.651953 C731.053014,889.465776 718.805054,896.826143 710.639748,901.733054" id="Path-10-Copy-21"></path>
                <path d="M1400,758.5 L1382.34249,756.607234 C1163.99585,733.201953 944.064362,783.05731 757.153759,898.328676 C754.695696,899.84461 752.852149,900.981561 751.623117,901.739529" id="Path-10-Copy-22"></path>
                <path d="M1400,768.5 L1374.08537,766.453146 C1169.988,750.33262 966.149155,797.89705 790.519938,902.230037" id="Path-10-Copy-23"></path>
                <path d="M1400,778.5 L1365.42805,776.744584 C1178.694,767.263024 993.544721,810.86784 831.191663,901.866076" id="Path-10-Copy-24"></path>
                <path d="M1400,788.5 L1356.41242,787.516359 C1187.51672,783.704891 1021.03388,823.178894 872.545619,901.427253" id="Path-10-Copy-25"></path>
                <path d="M1400,798.5 L1347.0829,798.798545 C1195.55336,799.653437 1046.86459,835.267277 912.210004,902.161039" id="Path-10-Copy-26"></path>
                <path d="M1400,808.5 L1337.48581,810.616136 C1204.3605,815.122494 1074.12314,846.418059 954.338905,901.989121" id="Path-10-Copy-27"></path>
                <path d="M1400,818.5 L1327.66872,822.988824 C1213.41935,830.079053 1101.81179,856.889499 997.621533,901.730125" id="Path-10-Copy-28"></path>
            </g>
        </g>
        <g id="Group-6" transform="translate(239.000000, 139.000000)">
            <g id="kaashi-logo" transform="translate(1201.250000, 1.250000)">
                <g id="body" transform="translate(48.333333, 45.000000)">
                    <mask id="mask-2" fill="white">
                        <use xlink:href="#path-1"></use>
                    </mask>
                    <use id="Mask" fill="#000000" xlink:href="#path-1"></use>
                    <g id="color-mask" mask="url(#mask-2)">
                        <g transform="translate(-9.166667, -5.833333)">
                            <polygon id="colormask-top" fill="#00BCD4" style="mix-blend-mode: lighten;" points="120.833333 120.833333 241.666667 0.833333333 0.833333333 0.833333333"></polygon>
                            <polygon id="colormask-right" fill="#01A9F4" style="mix-blend-mode: lighten;" transform="translate(180.833333, 121.250000) rotate(90.000000) translate(-180.833333, -121.250000) " points="180.416667 181.25 301.25 61.25 60.4166667 61.25"></polygon>
                            <polygon id="color-mask-left" fill="#2196F3" style="mix-blend-mode: lighten;" transform="translate(60.833333, 120.416667) rotate(-90.000000) translate(-60.833333, -120.416667) " points="60.4166667 180.416667 181.25 60.4166667 -59.5833333 60.4166667"></polygon>
                            <polygon id="colormask-bottom" fill="#3F51B5" style="mix-blend-mode: lighten;" transform="translate(120.416667, 180.833333) rotate(180.000000) translate(-120.416667, -180.833333) " points="120 240.833333 240.833333 120.833333 0 120.833333"></polygon>
                        </g>
                    </g>
                </g>
                <path d="M139.773268,89.1666667 L150.37987,99.7732684 L139.773268,110.37987 L129.166667,99.7732684 L139.773268,89.1666667 Z M109.773268,89.1666667 L120.37987,99.7732684 L109.773268,110.37987 L99.1666667,99.7732684 L109.773268,89.1666667 Z M124.773268,74.1666667 L135.37987,84.7732684 L124.773268,95.3798701 L114.166667,84.7732684 L124.773268,74.1666667 Z" id="dots" fill="#FF5656"></path>
                <rect id="frame" stroke-opacity="0.01" stroke="#979797" stroke-width="0.625" x="0.3125" y="0.3125" width="319.375" height="319.375"></rect>
            </g>
            <g id="Group-2">
                <rect id="Rectangle" fill-opacity="0" fill="#D8D8D8" x="0" y="0" width="320" height="320"></rect>
                <path d="M168.884781,83.8701347 L169.036281,83.9036692 L169.036281,83.9036692 L169.149809,83.9315469 L169.149809,83.9315469 L190.431974,89.6680878 C191.052632,89.8389073 191.655496,90.1164264 192.210805,90.5046729 C194.15127,91.861357 194.933177,94.1660784 194.335026,96.2043138 L168.947206,191.91347 C168.793683,192.545647 168.510416,193.156752 168.090962,193.71147 C166.356477,196.005287 162.950145,196.466307 160.482708,194.741189 C158.542242,193.384505 157.760336,191.079783 158.358487,189.041548 L182.271873,98.890246 L171.678359,96.0346325 L142.915917,204.390129 L145.017867,217.742304 L153.74618,206.899011 C155.651966,204.531393 159.104757,204.166305 161.458206,206.083564 C163.811655,208.000824 164.174558,211.474404 162.268773,213.842022 L145.877807,234.205046 C144.486074,235.93404 142.269338,236.595104 140.258204,236.079265 L140.142413,236.048199 C138.090259,235.516615 136.444128,233.806645 136.091531,231.567033 L132.017117,205.687312 C131.988203,205.503657 131.968655,205.320686 131.958119,205.138889 C131.770613,204.316991 131.789306,203.460136 132.02828,202.645817 L162.469369,87.9643379 L162.49876,87.8491297 L162.49876,87.8491297 L162.527694,87.7445426 L162.560217,87.6231126 C162.71365,86.99037 162.997041,86.3787049 163.416846,85.8235218 C164.685566,84.1456698 166.848797,83.4484451 168.884781,83.8701347 Z M201.124478,225.158995 C204.152801,225.158995 206.607742,227.628716 206.607742,230.675272 C206.607742,233.721827 204.152801,236.191549 201.124478,236.191549 L165.483264,236.191549 C162.454941,236.191549 160,233.721827 160,230.675272 C160,227.628716 162.454941,225.158995 165.483264,225.158995 L201.124478,225.158995 Z M224.112448,117.00355 L278.393989,171.611906 C280.535337,173.766146 280.535337,177.258859 278.393989,179.413099 L224.112448,234.021455 C221.9711,236.175695 218.49929,236.175695 216.357942,234.021455 C214.216594,231.867215 214.216594,228.374501 216.357942,226.220261 L266.762473,175.512259 L216.357942,124.804744 C214.216594,122.650504 214.216594,119.157791 216.357942,117.00355 C218.49929,114.84931 221.9711,114.84931 224.112448,117.00355 Z M103.642058,117.00355 C105.783406,119.157791 105.783406,122.650504 103.642058,124.804744 L53.2375273,175.512746 L103.642058,226.220261 C105.783406,228.374501 105.783406,231.867215 103.642058,234.021455 C101.50071,236.175695 98.0288999,236.175695 95.8875522,234.021455 L41.6060108,179.413099 C39.4646631,177.258859 39.4646631,173.766146 41.6060108,171.611906 L95.8875522,117.00355 C98.0288999,114.84931 101.50071,114.84931 103.642058,117.00355 Z" id="Shape" fill="#363062"></path>
            </g>
            <g id="Group-5" transform="translate(400.000000, 1.250000)">
                <rect id="Rectangle" fill-opacity="0" fill="#D8D8D8" x="0" y="0" width="320" height="320"></rect>
                <path d="M190.447761,177.702703 C206.274429,177.702703 219.104478,190.52914 219.104478,206.351351 C219.104478,222.173563 206.274429,235 190.447761,235 C174.621094,235 161.791045,222.173563 161.791045,206.351351 C161.791045,190.52914 174.621094,177.702703 190.447761,177.702703 Z M251.343284,177.702703 C267.169951,177.702703 280,190.52914 280,206.351351 C280,222.173563 267.169951,235 251.343284,235 L240.595345,235 C238.617934,235 237.014925,233.396992 237.014925,231.41958 L237.014925,231.418257 C237.014925,229.440846 238.617934,227.837838 240.595345,227.837838 L251.343284,227.837838 C263.213284,227.837838 272.835821,218.21801 272.835821,206.351351 C272.835821,194.484693 263.213284,184.864865 251.343284,184.864865 L240.595345,184.864865 C238.617934,184.864865 237.014925,183.261856 237.014925,181.284445 L237.014925,181.283122 C237.014925,179.305711 238.617934,177.702703 240.595345,177.702703 L251.343284,177.702703 Z M140.298507,177.702703 C142.276841,177.702703 143.880597,179.306007 143.880597,181.283784 L143.880597,231.418919 C143.880597,233.396695 142.276841,235 140.298507,235 L129.552239,235 C113.725571,235 100.895522,222.173563 100.895522,206.351351 C100.895522,190.52914 113.725571,177.702703 129.552239,177.702703 L140.298507,177.702703 Z M79.404655,177.702703 C81.3820662,177.702703 82.9850746,179.305711 82.9850746,181.283122 L82.9850746,231.41958 C82.9850746,233.396992 81.3820662,235 79.404655,235 L43.5804196,235 C41.6030084,235 40,233.396992 40,231.41958 L40,181.283122 C40,179.305711 41.6030084,177.702703 43.5804196,177.702703 L79.404655,177.702703 Z M190.447761,184.864865 C178.577761,184.864865 168.955224,194.484693 168.955224,206.351351 C168.955224,218.21801 178.577761,227.837838 190.447761,227.837838 C202.317762,227.837838 211.940299,218.21801 211.940299,206.351351 C211.940299,194.484693 202.317762,184.864865 190.447761,184.864865 Z M137.164179,184.864865 L129.552239,184.864865 C117.682238,184.864865 108.059701,194.484693 108.059701,206.351351 C108.059701,218.21801 117.682238,227.837838 129.552239,227.837838 L137.164179,227.837838 L137.164179,184.864865 Z M129.552239,102.5 C145.378906,102.5 158.208955,115.326437 158.208955,131.148649 C158.208955,146.97086 145.378906,159.797297 129.552239,159.797297 C113.725571,159.797297 100.895522,146.97086 100.895522,131.148649 C100.895522,115.326437 113.725571,102.5 129.552239,102.5 Z M79.404655,102.5 C81.3820662,102.5 82.9850746,104.103008 82.9850746,106.08042 L82.9850746,106.081743 C82.9850746,108.059154 81.3820662,109.662162 79.404655,109.662162 L68.6567164,109.662162 C56.7867158,109.662162 47.1641791,119.28199 47.1641791,131.148649 C47.1641791,143.015307 56.7867158,152.635135 68.6567164,152.635135 L79.404655,152.635135 C81.3820662,152.635135 82.9850746,154.238144 82.9850746,156.215555 L82.9850746,156.216878 C82.9850746,158.194289 81.3820662,159.797297 79.404655,159.797297 L68.6567164,159.797297 C52.830049,159.797297 40,146.97086 40,131.148649 C40,115.326437 52.830049,102.5 68.6567164,102.5 L79.404655,102.5 Z M190.447761,102.5 C206.274429,102.5 219.104478,115.326437 219.104478,131.148649 C219.104478,146.97086 206.274429,159.797297 190.447761,159.797297 L179.701493,159.797297 C177.723159,159.797297 176.119403,158.193993 176.119403,156.216216 L176.119403,106.081081 C176.119403,104.103305 177.723159,102.5 179.701493,102.5 L190.447761,102.5 Z M276.41958,102.5 C278.396992,102.5 280,104.103008 280,106.08042 L280,106.081743 C280,108.059154 278.396992,109.662162 276.41958,109.662162 L244.179104,109.662162 L244.179104,127.567568 L276.41958,127.567568 C278.396992,127.567568 280,129.170576 280,131.147987 L280,131.14931 C280,133.126721 278.396992,134.72973 276.41958,134.72973 L244.179104,134.72973 L244.179104,152.635135 L276.41958,152.635135 C278.396992,152.635135 280,154.238144 280,156.215555 L280,156.216878 C280,158.194289 278.396992,159.797297 276.41958,159.797297 L240.595345,159.797297 C238.617934,159.797297 237.014925,158.194289 237.014925,156.216878 L237.014925,106.08042 C237.014925,104.103008 238.617934,102.5 240.595345,102.5 L276.41958,102.5 Z M129.552239,109.662162 C117.682238,109.662162 108.059701,119.28199 108.059701,131.148649 C108.059701,143.015307 117.682238,152.635135 129.552239,152.635135 C141.422239,152.635135 151.044776,143.015307 151.044776,131.148649 C151.044776,119.28199 141.422239,109.662162 129.552239,109.662162 Z M190.447761,109.662162 L182.835821,109.662162 L182.835821,152.635135 L190.447761,152.635135 C202.317762,152.635135 211.940299,143.015307 211.940299,131.148649 C211.940299,119.28199 202.317762,109.662162 190.447761,109.662162 Z" id="Combined-Shape" fill="#000000" fill-rule="nonzero"></path>
            </g>
            <g id="Group-4" transform="translate(800.000000, 1.250000)">
                <g id="Group-3" transform="translate(160.296392, 160.262519) rotate(45.000000) translate(-160.296392, -160.262519) translate(82.296392, 12.262519)">
                    <path d="M36.6017964,100.598802 L38.7401448,103.584421 C41.7429944,107.777079 40.7784641,113.61019 36.5858062,116.61304 C35.1735565,117.624516 33.5071578,118.222001 31.7739521,118.338323 L26.0779394,118.720606 C20.8799396,119.069465 16.9489344,123.566083 17.2977934,128.764082 C17.3311339,129.260856 17.403753,129.75421 17.5149701,130.239521 L17.5480407,130.383829 C18.9618631,136.553236 15.7896851,142.856374 9.99251497,145.396707 C6.04033561,147.12856 4.24040617,151.73638 5.97226005,155.688559 C6.3157116,156.472333 6.78558999,157.194361 7.36312489,157.825799 L8.42065868,158.982036 C12.2534933,163.172602 18.7577446,163.4626 22.9483105,159.629766 C23.4401148,159.179945 23.887021,158.683374 24.2827101,158.147053 C44.0953019,131.294126 55.1627419,115.255088 57.4850299,110.02994 C62.8158786,98.0355307 59.4476151,84.9367283 47.3802395,70.7335329 L42.3490921,73.6725201 C33.4674322,78.8608164 30.4733695,90.2667696 35.6616659,99.1484295 C35.9524285,99.6461757 36.2661431,100.130154 36.6017964,100.598802 Z" id="Path-8" fill="#DF1D84"></path>
                    <path d="M131.811377,99.4760479 L133.949726,102.461666 C136.952575,106.654324 135.988045,112.487436 131.795387,115.490285 C130.383137,116.501761 128.716739,117.099246 126.983533,117.215569 L121.28752,117.597852 C116.08952,117.946711 112.158515,122.443328 112.507374,127.641328 C112.540715,128.138102 112.613334,128.631456 112.724551,129.116766 L112.757622,129.261075 C114.171444,135.430481 110.999266,141.733619 105.202096,144.273952 C101.249916,146.005806 99.449987,150.613625 101.181841,154.565805 C101.525292,155.349579 101.995171,156.071606 102.572706,156.703044 L103.63024,157.859281 C107.463074,162.049847 113.967325,162.339846 118.157891,158.507011 C118.649696,158.05719 119.096602,157.56062 119.492291,157.024298 C139.304883,130.171371 150.372323,114.132334 152.694611,108.907186 C158.025459,96.9127762 154.657196,83.8139738 142.58982,69.6107784 L137.558673,72.5497656 C128.677013,77.7380619 125.68295,89.1440151 130.871247,98.025675 C131.162009,98.5234212 131.475724,99.0073998 131.811377,99.4760479 Z" id="Path-8-Copy" fill="#DF1D84" transform="translate(125.177132, 118.338323) scale(-1, 1) translate(-125.177132, -118.338323) "></path>
                    <path d="M94.8723937,224.354148 L127.581639,257.063179 C136.207461,266.033385 136.102661,280.298449 127.264076,289.137034 C118.408879,297.992231 104.106787,298.080783 95.1426526,289.40269 L94.8726572,289.137034 L94.7878773,289.052254 C99.2661836,293.450438 106.461956,293.425881 110.909585,288.978253 C115.337183,284.550654 115.381459,277.399608 111.042413,272.917541 L110.909585,272.782543 L78.6768847,240.549657 L94.8723937,224.354148 Z M127.263861,191.962681 L144.094911,208.793614 L144.082909,208.80608 C152.399367,217.789921 152.191659,231.818032 143.459785,240.549906 C134.604588,249.405103 120.302497,249.493655 111.338362,240.815562 L111.068366,240.549906 L110.983918,240.464795 C115.461893,244.86331 122.657666,244.838753 127.105294,240.391125 C131.532893,235.963527 131.577169,228.812481 127.238122,224.330414 L127.105294,224.195416 L111.067903,208.15819 L127.263861,191.962681 Z M62.4809267,191.962681 L78.6768847,208.15819 L62.4809267,224.354148 L46.2854177,208.15819 L62.4809267,191.962681 Z M30.0898204,127.179942 C36.6833478,120.586415 63.5935576,112.834942 78.6783244,115.496688 C75.2340924,116.103913 72.4079293,117.253252 70.5790934,119.082087 C66.151495,123.509686 66.107219,130.660732 70.4462654,135.142799 L70.5790934,135.277797 L78.6768847,143.375256 L62.4809267,159.571214 L54.3833842,151.473506 C49.3531874,146.443309 42.792688,146.989579 38.3224919,151.340497 L38.187675,151.473506 C33.7600766,155.901104 33.7158006,163.05215 38.054847,167.534217 L38.187675,167.669215 L46.2854177,175.766723 L30.0894596,191.962681 L24.3736877,186.246646 C8.49712923,170.370088 6.62652481,151.069852 23.8460358,133.430099 L24.3736877,132.896075 L30.0898204,127.179942 Z M94.8723937,159.571214 L111.068352,175.766723 L94.8723937,191.962681 L78.6768847,175.767172 L94.8723937,159.571214 Z" id="Shape" fill="url(#linearGradient-3)"></path>
                    <path d="M78.5928144,-2.84217094e-14 C103.639093,-2.84217094e-14 123.990536,20.1009804 124.395061,45.0508579 L124.401198,45.8083832 L124.401198,64.9349314 C120.917408,67.1131202 117.852184,69.8984108 115.353663,73.1426495 C115.230262,73.3109867 115.104514,73.4774455 114.977663,73.6430133 C110.739548,79.3546657 108.233533,86.4280904 108.233533,94.0868263 C108.233533,102.543925 111.289245,110.287324 116.356919,116.273166 L132.980208,132.896075 C150.763732,150.679599 149.017136,170.209718 132.980208,186.246646 L46.444311,272.782543 C41.9719894,277.254865 41.9719894,284.505931 46.444311,288.978253 C50.8919395,293.425881 58.0877123,293.450438 62.5660187,289.052254 L62.4812388,289.137034 C53.5365956,298.081677 39.0344636,298.081677 30.0898204,289.137034 C21.2512351,280.298449 21.1464347,266.033385 29.7754193,257.066115 L29.7722574,257.063179 L46.2853293,240.549701 L46.0155341,240.815562 C37.0513995,249.493655 22.7493079,249.405103 13.8941111,240.549906 C5.16223717,231.818032 4.95452915,217.789921 13.2709871,208.80608 L13.2589853,208.793614 L86.7748026,135.277797 C91.2471242,130.805475 91.2471242,123.554409 86.7748026,119.082087 C76.9303519,109.237637 38.187675,119.082087 30.0898204,127.179942 L38.8661618,118.403382 C45.0971464,112.184309 48.9520958,103.585754 48.9520958,94.0868263 C48.9520958,86.4281145 46.4460961,79.3547102 42.2092479,73.6418679 C42.0811143,73.4774455 41.9553671,73.3109867 41.8307356,73.143648 C39.3334637,69.8984706 36.2682352,67.1131813 32.7844311,64.9349887 L32.7844311,45.8083832 L32.7905682,45.0508579 C33.1950924,20.1009804 53.5465356,-2.84217094e-14 78.5928144,-2.84217094e-14 Z M102.970512,151.473506 L30.2486018,224.195416 C25.7762802,228.667737 25.7762802,235.918803 30.2486018,240.391125 C34.6962303,244.838753 41.8920031,244.86331 46.3699784,240.464795 L119.166221,167.669215 C123.638543,163.196893 123.638543,155.945827 119.166221,151.473506 C114.693899,147.001184 108.051519,146.392499 102.970512,151.473506 Z" id="Shape" fill="url(#linearGradient-4)"></path>
                    <circle id="Oval" fill="#FFFFFF" cx="77.8443114" cy="43.1137725" r="4.79041916"></circle>
                </g>
            </g>
        </g>
    </g>
</svg>